<svg width="109" height="44" viewBox="0 0 109 44" fill="none" xmlns="http://www.w3.org/2000/svg">
<g style="mix-blend-mode:multiply">
<rect width="109" height="44" rx="22" fill="#F2F4F7"/>
<g clip-path="url(#clip0_12068_497)">
<path d="M21.75 15.125C21.75 14.9592 21.8158 14.8003 21.9331 14.6831C22.0503 14.5658 22.2092 14.5 22.375 14.5H28.625C28.7908 14.5 28.9497 14.5658 29.0669 14.6831C29.1842 14.8003 29.25 14.9592 29.25 15.125V21.375C29.25 21.5408 29.1842 21.6997 29.0669 21.8169C28.9497 21.9342 28.7908 22 28.625 22H22.375C22.2092 22 22.0503 21.9342 21.9331 21.8169C21.8158 21.6997 21.75 21.5408 21.75 21.375V15.125Z" fill="#101828"/>
<path d="M19.25 14.5C19.25 13.837 19.5134 13.2011 19.9822 12.7322C20.4511 12.2634 21.087 12 21.75 12H29.25C29.913 12 30.5489 12.2634 31.0178 12.7322C31.4866 13.2011 31.75 13.837 31.75 14.5V24.5C32.413 24.5 33.0489 24.7634 33.5178 25.2322C33.9866 25.7011 34.25 26.337 34.25 27V27.625C34.25 27.7908 34.3158 27.9497 34.4331 28.0669C34.5503 28.1842 34.7092 28.25 34.875 28.25C35.0408 28.25 35.1997 28.1842 35.3169 28.0669C35.4342 27.9497 35.5 27.7908 35.5 27.625V22H34.875C34.7092 22 34.5503 21.9342 34.4331 21.8169C34.3158 21.6997 34.25 21.5408 34.25 21.375V17.4688C34.25 17.303 34.3158 17.144 34.4331 17.0268C34.5503 16.9096 34.7092 16.8438 34.875 16.8438H36.7437C36.73 16.2488 36.6775 15.7263 36.4925 15.3163C36.3935 15.0779 36.2209 14.8773 36 14.7437C35.77 14.6062 35.42 14.5 34.875 14.5C34.7092 14.5 34.5503 14.4342 34.4331 14.3169C34.3158 14.1997 34.25 14.0408 34.25 13.875C34.25 13.7092 34.3158 13.5503 34.4331 13.4331C34.5503 13.3158 34.7092 13.25 34.875 13.25C35.58 13.2483 36.1683 13.3883 36.64 13.67C37.1187 13.955 37.4325 14.3588 37.6325 14.8038C38.0013 15.6225 38 16.635 38 17.405V21.3737C38.0002 21.4559 37.9841 21.5373 37.9528 21.6133C37.9214 21.6893 37.8754 21.7583 37.8174 21.8165C37.7593 21.8747 37.6904 21.9208 37.6145 21.9523C37.5386 21.9838 37.4572 22 37.375 22H36.75V27.625C36.75 28.1223 36.5525 28.5992 36.2008 28.9508C35.8492 29.3025 35.3723 29.5 34.875 29.5C34.3777 29.5 33.9008 29.3025 33.5492 28.9508C33.1975 28.5992 33 28.1223 33 27.625V27C33 26.6685 32.8683 26.3505 32.6339 26.1161C32.3995 25.8817 32.0815 25.75 31.75 25.75V30.75H32.375C32.5408 30.75 32.6997 30.8158 32.8169 30.9331C32.9342 31.0503 33 31.2092 33 31.375C33 31.5408 32.9342 31.6997 32.8169 31.8169C32.6997 31.9342 32.5408 32 32.375 32H18.625C18.4592 32 18.3003 31.9342 18.1831 31.8169C18.0658 31.6997 18 31.5408 18 31.375C18 31.2092 18.0658 31.0503 18.1831 30.9331C18.3003 30.8158 18.4592 30.75 18.625 30.75H19.25V14.5ZM30.5 14.5C30.5 14.1685 30.3683 13.8505 30.1339 13.6161C29.8995 13.3817 29.5815 13.25 29.25 13.25H21.75C21.4185 13.25 21.1005 13.3817 20.8661 13.6161C20.6317 13.8505 20.5 14.1685 20.5 14.5V30.75H30.5V14.5Z" fill="#101828"/>
</g>
<path d="M47.3175 28V16.3636H51.4652C52.3705 16.3636 53.1205 16.5284 53.7152 16.858C54.3099 17.1875 54.755 17.6383 55.0504 18.2102C55.3459 18.7784 55.4936 19.4186 55.4936 20.1307C55.4936 20.8466 55.344 21.4905 55.0447 22.0625C54.7493 22.6307 54.3023 23.0814 53.7038 23.4148C53.1091 23.7443 52.361 23.9091 51.4595 23.9091H48.6072V22.4205H51.3004C51.8724 22.4205 52.3364 22.322 52.6925 22.125C53.0485 21.9242 53.3099 21.6515 53.4766 21.3068C53.6432 20.9621 53.7266 20.5701 53.7266 20.1307C53.7266 19.6913 53.6432 19.3011 53.4766 18.9602C53.3099 18.6193 53.0466 18.3523 52.6868 18.1591C52.3307 17.9659 51.861 17.8693 51.2777 17.8693H49.0732V28H47.3175ZM61.0675 28.1761C60.2076 28.1761 59.4671 27.9924 58.8459 27.625C58.2285 27.2538 57.7512 26.733 57.4141 26.0625C57.0807 25.3883 56.9141 24.5985 56.9141 23.6932C56.9141 22.7992 57.0807 22.0114 57.4141 21.3295C57.7512 20.6477 58.2209 20.1155 58.8232 19.733C59.4292 19.3504 60.1375 19.1591 60.9482 19.1591C61.4406 19.1591 61.9179 19.2405 62.38 19.4034C62.8421 19.5663 63.2569 19.822 63.6243 20.1705C63.9917 20.5189 64.2815 20.9716 64.4936 21.5284C64.7057 22.0814 64.8118 22.7538 64.8118 23.5455V24.1477H57.8743V22.875H63.147C63.147 22.428 63.0561 22.0322 62.8743 21.6875C62.6925 21.339 62.4368 21.0644 62.1072 20.8636C61.7815 20.6629 61.3989 20.5625 60.9595 20.5625C60.4822 20.5625 60.0656 20.6799 59.7095 20.9148C59.3572 21.1458 59.0845 21.4489 58.8913 21.8239C58.7019 22.1951 58.6072 22.5985 58.6072 23.0341V24.0284C58.6072 24.6117 58.7095 25.108 58.9141 25.517C59.1224 25.9261 59.4122 26.2386 59.7834 26.4545C60.1546 26.6667 60.5883 26.7727 61.0845 26.7727C61.4065 26.7727 61.7 26.7273 61.9652 26.6364C62.2304 26.5417 62.4595 26.4015 62.6527 26.2159C62.8459 26.0303 62.9936 25.8011 63.0959 25.5284L64.7038 25.8182C64.575 26.2917 64.344 26.7064 64.0107 27.0625C63.6811 27.4148 63.2663 27.6894 62.7663 27.8864C62.2701 28.0795 61.7038 28.1761 61.0675 28.1761ZM70.7706 19.2727V20.6364H66.0036V19.2727H70.7706ZM67.282 17.1818H68.9808V25.4375C68.9808 25.767 69.0301 26.0152 69.1286 26.1818C69.227 26.3447 69.3539 26.4564 69.5092 26.517C69.6683 26.5739 69.8407 26.6023 70.0263 26.6023C70.1626 26.6023 70.282 26.5928 70.3842 26.5739C70.4865 26.5549 70.5661 26.5398 70.6229 26.5284L70.9297 27.9318C70.8312 27.9697 70.6911 28.0076 70.5092 28.0455C70.3274 28.0871 70.1001 28.1098 69.8274 28.1136C69.3804 28.1212 68.9638 28.0417 68.5774 27.875C68.1911 27.7083 67.8786 27.4508 67.6399 27.1023C67.4013 26.7538 67.282 26.3163 67.282 25.7898V17.1818ZM72.6499 28V19.2727H74.2919V20.6591H74.3828C74.5419 20.1894 74.8222 19.8201 75.2237 19.5511C75.629 19.2784 76.0874 19.142 76.5987 19.142C76.7048 19.142 76.8298 19.1458 76.9737 19.1534C77.1214 19.161 77.237 19.1705 77.3203 19.1818V20.8068C77.2521 20.7879 77.1309 20.767 76.9567 20.7443C76.7824 20.7178 76.6082 20.7045 76.4339 20.7045C76.0324 20.7045 75.6745 20.7898 75.3601 20.9602C75.0495 21.1269 74.8033 21.3598 74.6214 21.6591C74.4396 21.9545 74.3487 22.2917 74.3487 22.6705V28H72.6499ZM82.1541 28.1761C81.3359 28.1761 80.6219 27.9886 80.0121 27.6136C79.4022 27.2386 78.9287 26.714 78.5916 26.0398C78.2545 25.3655 78.0859 24.5777 78.0859 23.6761C78.0859 22.7708 78.2545 21.9792 78.5916 21.3011C78.9287 20.6231 79.4022 20.0966 80.0121 19.7216C80.6219 19.3466 81.3359 19.1591 82.1541 19.1591C82.9723 19.1591 83.6863 19.3466 84.2962 19.7216C84.906 20.0966 85.3795 20.6231 85.7166 21.3011C86.0537 21.9792 86.2223 22.7708 86.2223 23.6761C86.2223 24.5777 86.0537 25.3655 85.7166 26.0398C85.3795 26.714 84.906 27.2386 84.2962 27.6136C83.6863 27.9886 82.9723 28.1761 82.1541 28.1761ZM82.1598 26.75C82.6901 26.75 83.1295 26.6098 83.478 26.3295C83.8265 26.0492 84.084 25.6761 84.2507 25.2102C84.4212 24.7443 84.5064 24.2311 84.5064 23.6705C84.5064 23.1136 84.4212 22.6023 84.2507 22.1364C84.084 21.6667 83.8265 21.2898 83.478 21.0057C83.1295 20.7216 82.6901 20.5795 82.1598 20.5795C81.6257 20.5795 81.1825 20.7216 80.8303 21.0057C80.4818 21.2898 80.2223 21.6667 80.0518 22.1364C79.8852 22.6023 79.8018 23.1136 79.8018 23.6705C79.8018 24.2311 79.8852 24.7443 80.0518 25.2102C80.2223 25.6761 80.4818 26.0492 80.8303 26.3295C81.1825 26.6098 81.6257 26.75 82.1598 26.75ZM89.8175 16.3636V28H88.1186V16.3636H89.8175Z" fill="#101828"/>
</g>
<defs>
<clipPath id="clip0_12068_497">
<rect width="20" height="20" fill="white" transform="translate(18 12)"/>
</clipPath>
</defs>
</svg>
